<?xml version="1.0" encoding="UTF-8" standalone="no"?>
<svg
   id="Layer_1"
   viewBox="0 0 1013.4008 215.47646"
   version="1.1"
   sodipodi:docname="fairground-logo.svg"
   width="1013.4008"
   height="215.47646"
   inkscape:version="1.3.2 (091e20e, 2023-11-25, custom)"
   xmlns:inkscape="http://www.inkscape.org/namespaces/inkscape"
   xmlns:sodipodi="http://sodipodi.sourceforge.net/DTD/sodipodi-0.dtd"
   xmlns="http://www.w3.org/2000/svg"
   xmlns:svg="http://www.w3.org/2000/svg">
  <style>path { fill: #88432a; }</style>
  <defs
     id="defs33" />
  <sodipodi:namedview
     id="namedview33"
     pagecolor="#ffffff"
     bordercolor="#000000"
     borderopacity="0.25"
     inkscape:showpageshadow="2"
     inkscape:pageopacity="0.0"
     inkscape:pagecheckerboard="0"
     inkscape:deskcolor="#d1d1d1"
     inkscape:zoom="2.6841667"
     inkscape:cx="506.86122"
     inkscape:cy="113.62931"
     inkscape:window-width="3840"
     inkscape:window-height="2036"
     inkscape:window-x="-12"
     inkscape:window-y="-12"
     inkscape:window-maximized="1"
     inkscape:current-layer="Layer_1" />
  <g
     id="g22"
     transform="translate(-93.3,-186.36355)">
    <path
       d="m 262.72,368.58 h 11.71 c 6,0 10.12,3.33 10.12,9.13 0,5.8 -4.08,9.37 -10.45,9.37 h -8.81 v 14.29 h -2.58 v -32.79 z m 2.58,16.16 h 9.04 c 5.29,0 7.5,-2.81 7.5,-6.93 0,-4.4 -2.9,-6.89 -7.31,-6.89 h -9.23 z"
       id="path1" />
    <path
       d="m 291.62,392.57 c 0.98,4.36 3.89,6.93 9.28,6.93 6,0 8.29,-3 8.29,-6.56 0,-3.56 -1.64,-6 -8.85,-7.78 -6.93,-1.73 -9.93,-3.98 -9.93,-8.71 0,-4.31 3.14,-8.34 10.17,-8.34 7.03,0 10.26,4.4 10.68,8.38 h -2.62 c -0.75,-3.51 -3.04,-6.04 -8.2,-6.04 -4.73,0 -7.31,2.2 -7.31,5.86 0,3.66 2.15,5.01 8.2,6.51 9.23,2.29 10.59,6 10.59,9.93 0,4.82 -3.51,8.99 -11.1,8.99 -8.2,0 -11.2,-4.78 -11.8,-9.18 h 2.62 z"
       id="path2" />
    <path
       d="m 326.28,401.37 v -12.32 c 0,-0.28 -0.09,-0.61 -0.19,-0.75 l -11.71,-19.72 h 2.95 c 3.28,5.57 8.99,15.27 10.4,17.71 1.41,-2.44 7.17,-12.04 10.68,-17.71 h 2.81 l -12.23,19.91 c -0.09,0.19 -0.14,0.38 -0.14,0.7 v 12.18 h -2.58 z"
       id="path3" />
    <path
       d="m 369.56,392.61 c -1.55,5.2 -5.39,9.13 -12.32,9.13 -9.42,0 -14.38,-7.5 -14.38,-16.72 0,-9.22 4.87,-16.91 14.43,-16.91 7.07,0 11.24,3.94 12.32,9.42 h -2.53 c -1.5,-4.26 -4.26,-7.07 -9.93,-7.07 -8.15,0 -11.57,7.45 -11.57,14.52 0,7.07 3.37,14.43 11.76,14.43 5.34,0 8.06,-2.76 9.7,-6.79 h 2.53 z"
       id="path4" />
    <path
       d="m 376.63,368.58 h 2.53 v 14.29 h 19.67 v -14.29 h 2.53 v 32.79 h -2.53 v -16.16 h -19.67 v 16.16 h -2.53 z"
       id="path5" />
    <path
       d="m 438.09,384.74 c 0,8.95 -4.78,17.1 -14.9,17.1 -9.23,0 -14.62,-7.45 -14.62,-16.87 0,-9.42 5.2,-16.86 14.94,-16.86 8.99,0 14.57,7.07 14.57,16.63 z m -26.8,0.1 c 0,7.54 4.17,14.66 12.04,14.66 8.48,0 12.04,-6.93 12.04,-14.71 0,-7.78 -4.03,-14.33 -11.95,-14.33 -8.43,0 -12.13,6.98 -12.13,14.38 z"
       id="path6" />
    <path
       d="m 445.3,368.58 h 2.53 v 30.45 h 17.61 l -0.47,2.34 H 445.3 Z"
       id="path7" />
    <path
       d="m 497.06,384.74 c 0,8.95 -4.78,17.1 -14.9,17.1 -9.23,0 -14.62,-7.45 -14.62,-16.87 0,-9.42 5.2,-16.86 14.94,-16.86 8.99,0 14.57,7.07 14.57,16.63 z m -26.8,0.1 c 0,7.54 4.17,14.66 12.04,14.66 8.48,0 12.04,-6.93 12.04,-14.71 0,-7.78 -4.03,-14.33 -11.95,-14.33 -8.43,0 -12.13,6.98 -12.13,14.38 z"
       id="path8" />
    <path
       d="m 529.56,401.37 h -2.11 c -0.19,-0.38 -0.28,-2.06 -0.33,-5.25 -1.17,2.25 -3.75,5.62 -10.59,5.62 -9.42,0 -14.24,-7.17 -14.24,-16.49 0,-9.79 5.15,-17.14 14.76,-17.14 7.07,0 11.76,3.7 12.79,9.74 h -2.53 c -1.41,-4.64 -4.64,-7.4 -10.35,-7.4 -8.2,0 -11.95,6.37 -11.95,14.66 0,7.5 3.61,14.29 11.62,14.29 8.01,0 10.49,-5.34 10.49,-12.6 v -0.38 h -10.59 v -2.34 h 13.02 v 17.29 z"
       id="path9" />
    <path
       d="m 544.69,401.37 v -12.32 c 0,-0.28 -0.09,-0.61 -0.19,-0.75 l -11.71,-19.72 h 2.95 c 3.28,5.57 8.99,15.27 10.4,17.71 1.41,-2.44 7.17,-12.04 10.68,-17.71 h 2.81 l -12.23,19.91 c -0.09,0.19 -0.14,0.38 -0.14,0.7 v 12.18 h -2.58 z"
       id="path10" />
    <path
       d="m 579.73,390.04 -4.17,11.34 h -2.58 l 12.04,-32.79 h 3 l 12.55,32.79 h -2.76 l -4.26,-11.34 z m 12.97,-2.35 c -3.65,-9.74 -5.53,-14.43 -6.18,-16.63 h -0.05 c -0.8,2.48 -2.9,8.29 -5.86,16.63 z"
       id="path11" />
    <path
       d="m 606.38,401.37 v -32.79 h 3.75 c 5.11,7.87 17.1,26.19 19.16,29.75 h 0.05 c -0.28,-4.73 -0.23,-9.56 -0.23,-14.9 v -14.85 h 2.58 v 32.79 h -3.47 c -4.87,-7.59 -17.05,-26.65 -19.39,-30.26 h -0.05 c 0.23,4.31 0.19,9.09 0.19,15.04 v 15.22 h -2.58 z"
       id="path12" />
    <path
       d="m 641.32,368.58 h 10.87 c 8.99,0 15.22,6.28 15.22,16.11 0,9.83 -6.09,16.68 -15.27,16.68 h -10.82 z m 2.53,30.45 h 7.92 c 8.67,0 12.93,-6.09 12.93,-14.2 0,-7.21 -3.84,-13.91 -12.93,-13.91 h -7.92 z"
       id="path13" />
    <path
       d="m 692.51,401.37 -9.09,-32.79 h 2.62 c 2.2,7.87 7.17,26 7.92,29.84 h 0.05 c 0.61,-3.04 6,-21.17 8.29,-29.84 h 2.81 c 2.15,8.01 7.4,27.26 7.92,29.79 h 0.05 c 1.03,-4.64 6.51,-21.97 8.76,-29.79 h 2.58 l -10.02,32.79 h -2.91 c -2.15,-7.73 -7.26,-26.7 -7.82,-29.51 h -0.05 c -0.84,4.26 -5.9,21.36 -8.25,29.51 z"
       id="path14" />
    <path
       d="m 749.57,385.26 h -16.72 v 13.77 h 18.32 l -0.38,2.34 h -20.47 v -32.79 h 20.1 v 2.34 h -17.57 v 11.99 h 16.72 v 2.34 z"
       id="path15" />
    <path
       d="m 757.62,368.58 h 2.53 v 30.45 h 17.61 l -0.47,2.34 h -19.67 z"
       id="path16" />
    <path
       d="m 782.82,368.58 h 2.53 v 30.45 h 17.61 l -0.47,2.34 h -19.67 z"
       id="path17" />
    <path
       d="m 808.02,368.58 h 11.43 c 6.28,0 9.65,3.33 9.65,8.06 0,3.89 -2.34,6.42 -5.06,7.17 2.34,0.65 6.23,2.95 6.23,8.1 0,6.56 -4.92,9.46 -10.63,9.46 h -11.62 z m 10.58,14.1 c 5.67,0 7.82,-2.11 7.82,-5.9 0,-3.23 -2.25,-5.86 -6.84,-5.86 h -9.09 v 11.76 h 8.1 z m -8.1,16.35 h 9.23 c 4.31,0 7.92,-2.16 7.92,-6.98 0,-4.17 -2.67,-7.03 -9.28,-7.03 h -7.87 z"
       id="path18" />
    <path
       d="m 857.01,385.26 h -16.72 v 13.77 h 18.32 l -0.38,2.34 h -20.47 v -32.79 h 20.1 v 2.34 h -17.57 v 11.99 h 16.72 v 2.34 z"
       id="path19" />
    <path
       d="m 867.6,368.58 v 32.79 h -2.53 v -32.79 z"
       id="path20" />
    <path
       d="M 877.25,401.37 V 368.58 H 881 c 5.11,7.87 17.1,26.19 19.16,29.75 h 0.05 c -0.28,-4.73 -0.23,-9.56 -0.23,-14.9 v -14.85 h 2.58 v 32.79 h -3.47 c -4.87,-7.59 -17.05,-26.65 -19.39,-30.26 h -0.05 c 0.23,4.31 0.19,9.09 0.19,15.04 v 15.22 h -2.58 z"
       id="path21" />
    <path
       d="m 937.01,401.37 h -2.11 c -0.19,-0.38 -0.28,-2.06 -0.33,-5.25 -1.17,2.25 -3.75,5.62 -10.59,5.62 -9.42,0 -14.24,-7.17 -14.24,-16.49 0,-9.79 5.15,-17.14 14.76,-17.14 7.07,0 11.76,3.7 12.79,9.74 h -2.53 c -1.41,-4.64 -4.64,-7.4 -10.35,-7.4 -8.2,0 -11.95,6.37 -11.95,14.66 0,7.5 3.61,14.29 11.62,14.29 8.01,0 10.49,-5.34 10.49,-12.6 v -0.38 h -10.59 v -2.34 H 937 v 17.29 z"
       id="path22" />
  </g>
  <path
     d="m 0,132.14645 c 4.92,-1.48 6.57,-5.25 6.57,-18.71 v -73.21 c 0,-13.46 -1.64,-17.24 -6.57,-18.71 v -2.13 h 77.31 l 1.48,17.24 -1.8,0.49 c -5.58,-11 -12.48,-15.1 -27.9,-15.1 H 20.04 v 48.09 h 19.53 c 18.71,0.16 23.31,-3.78 25.44,-11 h 1.97 v 24.95 h -1.97 c -2.13,-7.39 -6.73,-11.33 -25.44,-11.33 H 20.04 v 40.71 c 0,13.46 1.48,17.24 6.57,18.71 v 2.13 H 0.02 v -2.13 z"
     id="path23" />
  <path
     d="m 62.87,132.14645 c 4.6,-1.48 8.7,-4.76 13.79,-17.23 l 32.34,-80.1 c 1.15,-2.95 0.98,-5.09 -0.33,-7.71 l -1.48,-3.45 12.31,-5.58 40.38,97.01 c 5.09,12.31 9.03,15.59 12.47,17.07 v 2.13 h -25.44 v -2.13 c 5.09,-1.48 3.77,-4.76 -1.48,-17.07 l -10.01,-24.13 H 89.13 l -9.68,23.97 c -4.27,10.67 -3.61,16.09 1.97,17.23 v 2.13 H 62.87 v -2.13 z m 71.56,-43.66 -22.49,-54 -21.83,54 z"
     id="path24" />
  <path
     d="m 179.25,132.14645 c 4.92,-1.48 6.57,-5.25 6.57,-18.71 v -73.21 c 0,-13.46 -1.64,-17.24 -6.57,-18.71 v -2.13 h 26.59 v 2.13 c -5.09,1.48 -6.57,5.25 -6.57,18.71 v 73.21 c 0,13.46 1.48,17.24 6.57,18.71 v 2.13 h -26.59 z"
     id="path25" />
  <path
     d="m 283.65,109.16645 c -9.52,-22.65 -10.83,-34.14 -30.53,-34.14 h -10.51 v 38.41 c 0,13.46 1.48,17.24 6.57,18.71 v 2.13 h -26.59 v -2.13 c 5.09,-1.48 6.57,-5.25 6.57,-18.71 v -73.21 c 0,-13.46 -1.48,-17.24 -6.57,-18.71 v -2.13 h 32.34 c 33.32,0 43.17,11 43.17,25.61 0,15.43 -11.16,27.08 -32.5,29.55 20.19,2.63 23.31,12.64 31.19,32.83 7.88,19.7 11.16,25.11 16.74,25.11 0.98,0 1.8,0 2.63,-0.17 v 1.97 c -2.46,0.82 -6.73,1.15 -10.01,1.15 -12.64,0 -15.27,-9.19 -22.49,-26.26 z m 0.49,-60.4 c 0,-14.61 -9.52,-26.92 -33.81,-26.92 -2.46,0 -5.09,0.16 -7.71,0.33 v 50.39 h 13.79 c 18.88,0 27.74,-9.85 27.74,-23.8 z"
     id="path26" />
  <path
     d="m 315,77.65645 c 0,-32.99 24.62,-59.42 59.75,-59.42 14.61,0 30.2,4.27 36.6,8.54 l 0.66,19.37 -1.64,0.33 c -6.07,-14.12 -21.17,-25.28 -40.38,-25.28 -23.64,0 -41.36,16.25 -41.69,46.45 -0.33,31.02 19.04,65 52.2,65 12.31,0 22.98,-6.57 27.08,-14.77 l -0.16,-16.74 c 0,-10.18 -1.31,-14.12 -8.37,-15.92 v -1.97 h 21.5 v 30.86 c -9.52,13.3 -28.56,21.83 -45.14,21.83 -36.6,0 -60.4,-22.98 -60.4,-58.27 z"
     id="path27" />
  <path
     d="m 497.7,109.16645 c -9.52,-22.65 -10.83,-34.14 -30.53,-34.14 h -10.51 v 38.41 c 0,13.46 1.48,17.24 6.57,18.71 v 2.13 h -26.59 v -2.13 c 5.09,-1.48 6.57,-5.25 6.57,-18.71 v -73.21 c 0,-13.46 -1.48,-17.24 -6.57,-18.71 v -2.13 h 32.34 c 33.32,0 43.17,11 43.17,25.61 0,15.43 -11.16,27.08 -32.5,29.55 20.19,2.63 23.31,12.64 31.19,32.83 7.88,19.7 11.16,25.11 16.74,25.11 0.98,0 1.8,0 2.63,-0.17 v 1.97 c -2.46,0.82 -6.73,1.15 -10.01,1.15 -12.64,0 -15.27,-9.19 -22.49,-26.26 z m 0.49,-60.4 c 0,-14.61 -9.52,-26.92 -33.81,-26.92 -2.46,0 -5.09,0.16 -7.71,0.33 v 50.39 h 13.79 c 18.88,0 27.74,-9.85 27.74,-23.8 z"
     id="path28" />
  <path
     d="m 693.81,91.93645 v -51.71 c 0,-13.46 -1.48,-17.24 -6.57,-18.71 v -2.13 h 26.59 v 2.13 c -4.92,1.48 -6.57,5.25 -6.57,18.71 v 50.72 c 0,30.53 16.91,41.53 38.25,41.53 14.12,0 32.99,-9.36 32.99,-41.53 v -44.15 c 0,-18.71 -3.94,-23.31 -11.16,-25.28 v -2.13 h 20.35 v 2.13 c -4.92,1.48 -6.57,5.25 -6.57,18.71 v 50.23 c 0,32.99 -18.06,45.47 -40.87,45.47 -22.81,0 -46.45,-11 -46.45,-43.99 z"
     id="path29" />
  <path
     d="m 810.19,34.97645 v 71.9 c 0,18.71 3.94,23.31 11.33,25.28 v 2.13 H 801 v -2.13 c 4.92,-1.48 6.57,-5.25 6.57,-18.71 v -73.21 c 0,-13.46 -1.97,-17.24 -8.54,-18.71 v -2.13 h 16.09 l 71.73,92.91 v -65.49 c 0,-18.71 -3.94,-23.31 -11.33,-25.28 v -2.13 h 20.68 v 2.13 c -5.09,1.48 -6.57,5.25 -6.57,18.71 v 95.37 h -2.13 l -77.31,-100.62 z"
     id="path30" />
  <path
     d="m 911.14,134.28645 v -2.13 c 4.92,-1.48 6.57,-5.25 6.57,-18.71 v -73.21 c 0,-13.46 -1.64,-17.24 -6.57,-18.71 v -2.13 h 39.23 c 45.14,0 62.87,28.73 63.03,55.32 0.16,34.64 -23.14,59.58 -59.26,59.58 h -43 z m 87.33,-53.02 c 0,-32.83 -19.53,-59.42 -56.14,-59.42 h -11.16 v 97.99 c 0,7.71 1.64,11.98 10.67,11.98 h 11.98 c 28.73,0 44.65,-16.25 44.65,-50.56 z"
     id="path31" />
  <g
     id="g33"
     transform="translate(-93.3,-186.36355)">
    <path
       d="m 687.06,186.87 c -33.92,4.12 -60.1,32.61 -57.8,69.65 1.1,17.86 9.53,32.75 21.7,43.45 l 1.9,-2.77 2.37,-3.42 1.75,-2.6 c -15.74,-22.48 -19.25,-59.32 6.76,-86.22 21.98,-22.7 60.27,-15.49 79.9,6.55 18.74,21.01 17.81,56.99 1.77,79.88 l 1.61,2.37 0.99,1.44 c 8.35,-10.99 13.42,-26.08 13.42,-45.39 0,-46.34 -40.47,-67.07 -74.38,-62.93 z m 46.45,121.32 c -0.23,-0.34 -0.49,-0.7 -0.74,-1.06 l -0.21,-0.32 -0.4,-0.59 -0.78,-1.14 c -17.73,11.2 -42.71,10.31 -60.18,-0.42 l -1.06,1.54 -0.44,0.68 -0.3,0.4 c -0.21,0.32 -0.42,0.61 -0.63,0.91 v 0.02 l -0.55,0.78 c -0.38,0.55 -0.76,1.1 -1.1,1.61 9.87,4.82 20.84,7.42 31.72,7.42 12.68,0 24.75,-3.15 34.85,-9.59 l -0.17,-0.23 z"
       id="path32" />
    <path
       d="m 764.87,316.56 v 5.73 h -28.15 v -5.73 h 0.02 c 0.91,-0.15 1.63,-0.36 2.2,-0.59 0.91,-0.42 1.33,-0.97 1.33,-1.78 0,-0.17 -0.02,-0.34 -0.04,-0.53 -0.04,-0.23 -0.13,-0.49 -0.23,-0.76 -0.06,-0.19 -0.15,-0.4 -0.27,-0.61 -0.15,-0.32 -0.3,-0.63 -0.49,-0.97 -0.3,-0.51 -0.63,-1.1 -1.06,-1.71 -0.46,-0.72 -0.99,-1.5 -1.61,-2.37 v -0.02 c -0.08,-0.15 -0.19,-0.27 -0.3,-0.44 -0.02,-0.02 -0.04,-0.06 -0.06,-0.08 -0.36,-0.51 -0.72,-1.01 -1.12,-1.58 l -0.4,-0.61 -0.78,-1.14 -1.29,-1.88 -1.88,-2.75 -0.99,-1.46 v -0.02 l -3.06,-4.46 -2.66,-3.91 -1.1,-1.65 -21.17,-30.89 -0.61,-0.91 -0.61,0.91 -21.17,30.89 -1.1,1.65 -2.66,3.91 -3.06,4.46 0.02,0.02 -1.01,1.46 -1.88,2.75 -1.01,1.5 -1.06,1.52 -0.4,0.61 c -0.42,0.59 -0.8,1.14 -1.18,1.67 -0.11,0.17 -0.21,0.3 -0.3,0.44 v 0.02 c -0.51,0.72 -0.95,1.37 -1.33,1.97 -0.11,0.15 -0.19,0.27 -0.28,0.4 -0.42,0.61 -0.76,1.2 -1.06,1.71 -0.19,0.34 -0.34,0.66 -0.49,0.97 -0.13,0.21 -0.21,0.42 -0.27,0.61 -0.11,0.27 -0.19,0.53 -0.23,0.76 -0.02,0.19 -0.04,0.36 -0.04,0.53 0,0.8 0.42,1.35 1.33,1.78 0.57,0.23 1.29,0.44 2.22,0.59 v 5.73 h -28.15 v -5.73 c 3.83,-0.99 8.16,-3.19 13.8,-11.45 l 2.13,-3.17 0.17,-0.23 1.9,-2.77 2.37,-3.42 1.14,-1.71 0.76,-1.12 0.4,-0.55 4.12,-6.02 28.84,-42.07 -0.25,-0.38 h 16.7 l -0.25,0.38 28.84,42.07 4.12,6.02 0.4,0.55 0.89,1.33 1.01,1.5 1.52,2.2 0.85,1.23 1.9,2.77 2.3,3.4 c 5.64,8.26 9.97,10.46 13.8,11.45 z"
       id="path33" />
  </g>
</svg>
